<svg id="Layer_1" xmlns="http://www.w3.org/2000/svg" xmlns:xlink="http://www.w3.org/1999/xlink" width="1600" height="600" viewBox="0 0 1600 600"><style>.st0{fill:url(#SVGID_1_);} .st1{fill:url(#SVGID_2_);} .st2{fill:#5F5C6A;} .st3{fill:#FFCF32;} .st4{fill:#F89E2B;} .st5{fill:url(#SVGID_3_);} .st6{fill:url(#SVGID_4_);} .st7{fill:url(#SVGID_5_);} .st8{fill:url(#SVGID_6_);} .st9{fill:url(#SVGID_7_);} .st10{fill:url(#SVGID_8_);} .st11{fill:url(#SVGID_9_);} .st12{fill:url(#SVGID_10_);} .st13{fill:none;stroke:#B1BFC3;stroke-width:2;stroke-miterlimit:10;} .st14{fill:#B1BFC3;} .st15{fill:#F15D52;} .st16{fill:#626EB3;} .st17{fill:url(#SVGID_11_);} .st18{fill:url(#SVGID_12_);} .st19{fill:#F1F2F3;} .st20{fill:url(#SVGID_13_);} .st21{fill:#FFCE04;} .st22{fill:#9D753A;} .st23{fill:#1BC0DD;} .st24{fill:#81939B;} .st25{fill:url(#SVGID_14_);} .st26{fill:url(#SVGID_15_);} .st27{fill:url(#SVGID_16_);} .st28{fill:#57BB66;} .st29{fill:#B0BEC2;} .st30{fill:url(#SVGID_17_);} .st31{fill:#3A3E41;} .st32{opacity:0.3;fill:#393E41;} .st33{fill:url(#SVGID_18_);} .st34{fill:url(#SVGID_19_);} .st35{fill:#22ABC6;} .st36{fill:url(#SVGID_20_);} .st37{opacity:0.8;fill:#FFCF32;} .st38{fill:#D93A4E;} .st39{fill:url(#SVGID_21_);} .st40{fill:url(#SVGID_22_);} .st41{fill:#21AAC5;} .st42{opacity:0.8;fill:#7ACCDB;} .st43{fill:#544C9E;} .st44{fill:url(#SVGID_23_);} .st45{fill:url(#SVGID_24_);} .st46{fill:#BFD84D;} .st47{fill:#5CBB69;} .st48{fill:#DAE695;} .st49{fill:#009F62;} .st50{fill:url(#SVGID_25_);} .st51{fill:url(#SVGID_26_);} .st52{fill:url(#SVGID_27_);} .st53{fill:#0BAAC8;} .st54{opacity:0.5;} .st55{fill:#534A9E;} .st56{fill:url(#SVGID_28_);} .st57{fill:url(#SVGID_29_);} .st58{opacity:0.5;fill:#534A9E;} .st59{opacity:0.5;fill:#0BAAC8;} .st60{fill:url(#SVGID_30_);} .st61{fill:url(#SVGID_31_);} .st62{fill:url(#SVGID_32_);} .st63{fill:#5D5B6A;} .st64{fill:url(#SVGID_33_);} .st65{fill:url(#SVGID_34_);} .st66{fill:url(#SVGID_35_);} .st67{fill:url(#SVGID_36_);} .st68{fill:url(#SVGID_37_);} .st69{fill:url(#SVGID_38_);} .st70{fill:url(#SVGID_39_);} .st71{fill:#A3DAE2;} .st72{opacity:0.45;} .st73{fill:url(#SVGID_40_);} .st74{fill:#EAECED;} .st75{fill:url(#SVGID_41_);} .st76{fill:url(#SVGID_42_);} .st77{fill:#F15B51;} .st78{fill:url(#SVGID_43_);} .st79{fill:url(#SVGID_44_);} .st80{fill:url(#SVGID_45_);} .st81{fill:url(#SVGID_46_);} .st82{fill:url(#SVGID_47_);} .st83{fill:#5CBC6A;} .st84{fill:url(#SVGID_48_);} .st85{opacity:0.1;} .st86{clip-path:url(#SVGID_49_);} .st87{fill:none;stroke:#1BC0DD;stroke-miterlimit:10;} .st88{fill:url(#SVGID_50_);} .st89{clip-path:url(#SVGID_51_);} .st90{fill:url(#SVGID_52_);} .st91{clip-path:url(#SVGID_53_);} .st92{opacity:0.6;fill:#1BC0DD;} .st93{fill:url(#SVGID_54_);} .st94{clip-path:url(#SVGID_55_);}</style><linearGradient id="SVGID_1_" gradientUnits="userSpaceOnUse" x1="113.417" y1="520.481" x2="113.417" y2="541.422"><stop offset="0" stop-color="#FFCF32"/><stop offset=".235" stop-color="#FFC831"/><stop offset=".629" stop-color="#FCB42E"/><stop offset="1" stop-color="#F89E2B"/></linearGradient><path class="st0" d="M113.4 520.5l-20.9 5.2v10.5l20.9 5.2h21v-20.9z"/><linearGradient id="SVGID_2_" gradientUnits="userSpaceOnUse" x1="239.063" y1="541.422" x2="239.063" y2="520.481"><stop offset="0" stop-color="#3C3E46"/><stop offset=".265" stop-color="#3E3F48"/><stop offset=".512" stop-color="#44454E"/><stop offset=".754" stop-color="#4F4E59"/><stop offset=".99" stop-color="#5E5B69"/><stop offset="1" stop-color="#5F5C6A"/></linearGradient><path class="st1" d="M322.8 520.5H134.4v21h188.5c11.6 0 20.9-4.7 20.9-10.5s-9.4-10.5-21-10.5z"/><path class="st2" d="M322.8 520.5c11.6 0 20.9 4.7 20.9 10.5h-20.9v-10.5z"/><path class="st2" d="M134.4 520.5h188.5V531H134.4z"/><path class="st3" d="M312.4 520.5h10.5V531h-10.5z"/><path class="st4" d="M312.4 531h10.5v10.5h-10.5z"/><path class="st3" d="M121.3 520.5h5.2V531h-5.2z"/><path class="st4" d="M121.3 531h5.2v10.5h-5.2z"/><linearGradient id="SVGID_3_" gradientUnits="userSpaceOnUse" x1="207.652" y1="530.952" x2="207.652" y2="541.422"><stop offset="0" stop-color="#FFCF32"/><stop offset="1" stop-color="#F89E2B"/></linearGradient><path class="st5" d="M205 531h5.2v10.5H205z"/><path class="st3" d="M205 520.5h5.2V531H205z"/><linearGradient id="SVGID_4_" gradientUnits="userSpaceOnUse" x1="243.251" y1="530.952" x2="243.251" y2="541.422"><stop offset="0" stop-color="#FFCF32"/><stop offset="1" stop-color="#F89E2B"/></linearGradient><path class="st6" d="M240.6 531h5.2v10.5h-5.2z"/><path class="st3" d="M240.6 520.5h5.2V531h-5.2zM215 520.5h20.9V531H215z"/><linearGradient id="SVGID_5_" gradientUnits="userSpaceOnUse" x1="225.451" y1="530.952" x2="225.451" y2="541.422"><stop offset="0" stop-color="#FFCF32"/><stop offset="1" stop-color="#F89E2B"/></linearGradient><path class="st7" d="M215 531h20.9v10.5H215z"/><linearGradient id="SVGID_6_" gradientUnits="userSpaceOnUse" x1="291.416" y1="525.717" x2="291.416" y2="536.187"><stop offset="0" stop-color="#FFCF32"/><stop offset="1" stop-color="#F89E2B"/></linearGradient><path class="st8" d="M322.8 536.2H260c-2.9 0-5.2-2.3-5.2-5.2 0-2.9 2.3-5.2 5.2-5.2h62.8c2.9 0 5.2 2.3 5.2 5.2.1 2.8-2.3 5.2-5.2 5.2z"/><g><linearGradient id="SVGID_7_" gradientUnits="userSpaceOnUse" x1="561.905" y1="-365.102" x2="784.008" y2="-365.102" gradientTransform="rotate(-37.57 1887.15 13.857)"><stop offset="0" stop-color="#F1F2F3"/><stop offset="1" stop-color="#B1BFC3"/></linearGradient><path class="st9" d="M755.3 368.2l-160 123.1c-4.4 3.4-5.2 9.8-1.8 14.2l24.6 32c3.4 4.4 9.8 5.2 14.2 1.8l160-123.1c4.4-3.4 5.2-9.8 1.8-14.2l-24.6-32c-3.5-4.3-9.8-5.2-14.2-1.8z"/><linearGradient id="SVGID_8_" gradientUnits="userSpaceOnUse" x1="642.67" y1="-334.815" x2="642.67" y2="-395.389" gradientTransform="rotate(-37.57 1887.15 13.857)"><stop offset="0" stop-color="#626EB3"/><stop offset="1" stop-color="#22ABC6"/></linearGradient><path class="st10" d="M704.2 483.9l-32 24.7-37-48 32-24.7z"/><linearGradient id="SVGID_9_" gradientUnits="userSpaceOnUse" x1="698.195" y1="-334.815" x2="698.195" y2="-395.389" gradientTransform="rotate(-37.57 1887.15 13.857)"><stop offset="0" stop-color="#F89E2B"/><stop offset="1" stop-color="#FFCF30"/></linearGradient><path class="st11" d="M748.2 450.1l-32 24.6-36.9-48 32-24.6z"/><linearGradient id="SVGID_10_" gradientUnits="userSpaceOnUse" x1="723.263" y1="404.541" x2="792.203" y2="404.541"><stop offset="0" stop-color="#F89E2B"/><stop offset="1" stop-color="#F15D52"/></linearGradient><path class="st12" d="M792.2 416.2l-32 24.7-36.9-48.1 32-24.6z"/><path class="st13" d="M625.4 480.9l18.5 24M617.4 487l12.3 16"/><path class="st14" d="M608.2 481.3l-14.7 24.4 24.4 31.7c3.4 4.4 9.8 5.2 14.2 1.8l22.1-17 23.1-38.6 61.9-103.3-131 101z"/><path class="st15" d="M739.4 380.5l-16.1 12.3 4.8 6.4z"/><path class="st4" d="M719.8 413.1l-8.5-11-32 24.6 18.1 23.7z"/><path class="st16" d="M677.4 483.7l11.7-19.4-21.9-28.4-32 24.7 31.6 40.9z"/><g><linearGradient id="SVGID_11_" gradientUnits="userSpaceOnUse" x1="-1790.641" y1="-2810.895" x2="-1689.686" y2="-2810.895" gradientTransform="rotate(-59.05 2355.79 -3254.594)"><stop offset="0" stop-color="#F1F2F3"/><stop offset="1" stop-color="#B1BFC3"/></linearGradient><path class="st17" d="M583 505.2c-2.9 4.8-1.3 11 3.5 13.9l34.6 20.8c4.8 2.9 11 1.3 13.9-3.5l46.7-77.9-51.9-31.2-46.8 77.9z"/><linearGradient id="SVGID_12_" gradientUnits="userSpaceOnUse" x1="-1709.877" y1="-2810.895" x2="-1568.539" y2="-2810.895" gradientTransform="rotate(-59.05 2355.79 -3254.594)"><stop offset="0" stop-color="#5D5B6A"/><stop offset="1" stop-color="#3C3D46"/></linearGradient><path class="st18" d="M686.8 332l-67.5 112.6 51.9 31.2 67.5-112.6c2.9-4.8 1.3-11-3.5-13.9l-34.6-20.8c-4.7-2.8-10.9-1.2-13.8 3.5z"/><path class="st13" d="M617.6 467.1l26 15.6M612.4 475.7l13 7.8"/><ellipse transform="rotate(-59.05 627.957 523.345)" class="st14" cx="628" cy="523.3" rx="10.1" ry="10.1"/><ellipse transform="rotate(-59.05 624.495 524.21)" class="st19" cx="624.5" cy="524.2" rx="10.1" ry="10.1"/></g></g><g><linearGradient id="SVGID_13_" gradientUnits="userSpaceOnUse" x1="852.038" y1="298.893" x2="852.038" y2="541.422"><stop offset="0" stop-color="#FFCE0E"/><stop offset="1" stop-color="#F89E1C"/></linearGradient><path class="st20" d="M882.6 298.9l-12.5 20.6c12.3 20 19.4 43.5 19.4 68.7 0 71.2-56.6 129.1-127.4 131.2l-2.3 10.8c16.2 7.3 34.1 11.2 53.1 11.2 72.4 0 131.4-58.7 131.4-131.4-.2-46.8-24.8-88-61.7-111.1z"/><path class="st21" d="M911.4 400.9c0-35-13.7-66.6-36-90.1l-5.4 8.7c12.3 20 19.4 43.5 19.4 68.7 0 71.2-56.6 129.1-127.4 131.2l-2.3 10.8c.6.2 2.8 1 3.4 1.4 6 .8 10.7.7 17 .7 72.4 0 131.3-58.7 131.3-131.4z"/><path class="st22" d="M882.6 298.9l-14.6-1.7-1.2-.2-21.4-7.7c-.6-.2-1 0-1.5.6l-2.3 4.6c-.2.6 0 1.2.6 1.5l20 9.2c1.2.6 2.3 1.7 2.7 2.9l5 11.7 12.7-20.9zM775.3 518.3c-4 .4-9.1.9-13.4 1.1l-2.3 10.8c3.5 1.5 7.1 2.9 10.8 4.2l4.9-16.1z"/><path class="st23" d="M891.2 421.1c6.9 0 12.5-9.8 12.5-21.9s-5.6-21.9-12.5-21.9c-.6 0-1.5.2-2.1.4.2 3.5.4 7.1.4 10.6 0 10.6-1.2 20.8-3.5 30.8 1.4 1.2 3.1 2 5.2 2z"/></g><g><path class="st24" d="M769.5 185.3h-8.1v-136h8.1v136z"/><linearGradient id="SVGID_14_" gradientUnits="userSpaceOnUse" x1="-1669.003" y1="-1855.267" x2="-1669.003" y2="-1719.304" gradientTransform="translate(2436.525 1904.598)"><stop offset="0" stop-color="#AEBCC0"/><stop offset="1" stop-color="#83949C"/></linearGradient><path class="st25" d="M769.5 185.3h-4v-136h4v136z"/><linearGradient id="SVGID_15_" gradientUnits="userSpaceOnUse" x1="-1670.984" y1="-1855.267" x2="-1670.984" y2="-1823.153" gradientTransform="translate(2436.525 1904.598)"><stop offset="0" stop-color="#AEBCC0"/><stop offset="1" stop-color="#83949C"/></linearGradient><path class="st26" d="M769.5 81.4l4-8.1-4-24h-7.9l-4 24 4 8.1h7.9z"/><linearGradient id="SVGID_16_" gradientUnits="userSpaceOnUse" x1="-1974.543" y1="2538.602" x2="-2094.657" y2="2538.602" gradientTransform="rotate(90 512.044 2791.995)"><stop offset="0" stop-color="#59BA65"/><stop offset="1" stop-color="#BDD741"/></linearGradient><path class="st27" d="M761.6 185.3h8.1c4.4 0 8.1 3.8 8.1 8.1v15.8h-24v-16.1c-.4-4.3 3.4-7.8 7.8-7.8zm3.7 120.1h.4c11.1 0 19.8-8.8 19.8-19.8v-68.2c0-4.4-3.8-8.1-8.1-8.1h-24c-4.4 0-8.1 3.8-8.1 8.1v68.2c.2 10.8 9 19.8 20 19.8z"/><path class="st28" d="M777.8 197h-24v-4h24v4zm0 7.9h-24v-4h24v4zm-8.3 24.4v56.1c0 6.5 5.4 11.9 11.9 11.9h.2c2.5-3.3 4-7.3 4-11.9v-67.6c-1.3-.4-2.5-.6-3.8-.6h-.2c-6.9.2-12.1 5.4-12.1 12.1zm-20.2 68c6.5 0 11.9-5.4 11.9-11.9v-56.1c0-6.5-5.4-11.9-11.9-11.9h-.2c-1.5 0-2.5.2-3.8.6v67.6c-.2 4.4 1.3 8.5 4 11.7z"/><path class="st29" d="M770.8 57.5l-1.3-8.1h-7.9l-1.5 8.1h10.7z"/></g><g><linearGradient id="SVGID_17_" gradientUnits="userSpaceOnUse" x1="888.424" y1="49.694" x2="888.424" y2="239.669"><stop offset="0" stop-color="#3C3D46"/><stop offset="1" stop-color="#33373A"/></linearGradient><path class="st30" d="M864.7 51.5h-12.1l-8 4.9-5.5 10.6v155.5l1.9 7.3 10.9 7.1h70.9l8.5-2.8 4.6-5.5 1.9-8.4V67l-3.7-8.8-7.7-4.9-10.5-1.8z"/><path class="st31" d="M939.8 69c0-10.8-8.9-19.6-19.8-19.6h-63.3c-10.9 0-19.8 8.8-19.8 19.6v151.2c0 10.8 8.9 19.6 19.8 19.6H920c10.9 0 19.8-8.8 19.8-19.6V69zm-19.7 166.9h-63.3c-8.7 0-15.8-7-15.8-15.7V69c0-8.7 7.1-15.7 15.8-15.7h63.3c8.7 0 15.8 7 15.8 15.7v151.2c0 8.7-7.1 15.7-15.8 15.7z"/><path class="st32" d="M939.8 69c0-10.8-8.9-19.6-19.8-19.6h-63.3c-10.9 0-19.8 8.8-19.8 19.6v151.2c0 10.8 8.9 19.6 19.8 19.6H920c10.9 0 19.8-8.8 19.8-19.6V69zm-19.7 166.9h-63.3c-8.7 0-15.8-7-15.8-15.7V69c0-8.7 7.1-15.7 15.8-15.7h63.3c8.7 0 15.8 7 15.8 15.7v151.2c0 8.7-7.1 15.7-15.8 15.7z"/><linearGradient id="SVGID_18_" gradientUnits="userSpaceOnUse" x1="888.423" y1="235.895" x2="888.423" y2="53.258"><stop offset="0" stop-color="#3C3E46"/><stop offset=".265" stop-color="#3E3F48"/><stop offset=".512" stop-color="#44454E"/><stop offset=".754" stop-color="#4F4E59"/><stop offset=".99" stop-color="#5E5B69"/><stop offset="1" stop-color="#5F5C6A"/></linearGradient><path class="st33" d="M935.9 69c0-8.7-7.1-15.7-15.8-15.7h-63.3c-8.7 0-15.8 7-15.8 15.7v151.2c0 8.7 7.1 15.7 15.8 15.7h63.3c8.7 0 15.8-7 15.8-15.7V69zm-87 135.5V84.7H928V204.5h-79.1z"/><linearGradient id="SVGID_19_" gradientUnits="userSpaceOnUse" x1="888.423" y1="84.68" x2="888.423" y2="204.555"><stop offset="0" stop-color="#21AAC5"/><stop offset="1" stop-color="#626EB3"/></linearGradient><path class="st34" d="M848.9 84.7H928v119.9h-79.1z"/><path class="st35" d="M848.9 84.7v47.1l47.4-47.1z"/><path class="st16" d="M848.9 84.7H928v7.9h-79.1z"/><path class="st31" d="M896.3 70.9h-15.8c-1.1 0-2-.9-2-2s.9-2 2-2h15.8c1.1 0 2 .9 2 2s-.9 2-2 2z"/><ellipse class="st31" cx="868.7" cy="69" rx="4" ry="3.9"/><path class="st32" d="M896.3 70.9h-15.8c-1.1 0-2-.9-2-2s.9-2 2-2h15.8c1.1 0 2 .9 2 2s-.9 2-2 2z"/><ellipse class="st32" cx="868.7" cy="69" rx="4" ry="3.9"/><ellipse class="st32" cx="888.4" cy="220.2" rx="8.4" ry="8.4"/></g><g><linearGradient id="SVGID_20_" gradientUnits="userSpaceOnUse" x1="5107.441" y1="-4232.905" x2="5107.441" y2="-4214.061" gradientTransform="rotate(-90 5137.19 441.008)"><stop offset="0" stop-color="#F89E2B"/><stop offset="1" stop-color="#F15D52"/></linearGradient><path class="st36" d="M463.3 409.5h18.8V532h-18.8z"/><path class="st4" d="M463.3 409.5h9.4V532h-9.4z"/><path class="st15" d="M468.7 420c1.1.4 2 .8 4 .8s2.9-.4 4-.8c1.3-.5 2.7-1.1 5.4-1.1v3.8c-2 0-2.9.4-4 .8-1.3.5-2.7 1.1-5.4 1.1s-4.1-.6-5.4-1.1c-1.1-.4-2-.8-4-.8v-3.8c2.7 0 4.1.6 5.4 1.1zM468.7 518c1.1.4 2 .8 4 .8s2.9-.4 4-.8c1.3-.5 2.7-1.1 5.4-1.1v3.8c-2 0-2.9.4-4 .8-1.3.5-2.7 1.1-5.4 1.1s-4.1-.6-5.4-1.1c-1.1-.4-2-.8-4-.8v-3.8c2.7 0 4.1.6 5.4 1.1z"/><path class="st37" d="M472.7 424.6v-3.8c-2 0-2.9-.4-4-.8-1.3-.5-2.7-1.1-5.4-1.1v3.8c2 0 2.9.4 4 .8 1.2.5 2.7 1.1 5.4 1.1zM472.7 522.6v-3.8c-2 0-2.9-.4-4-.8-1.3-.5-2.7-1.1-5.4-1.1v3.8c2 0 2.9.4 4 .8 1.2.5 2.7 1.1 5.4 1.1z"/><path class="st38" d="M463.3 532h18.8v9.4h-18.8zM463.3 400.1h18.8v9.4h-18.8z"/><path class="st15" d="M463.3 400.1h9.4v9.4h-9.4zM463.3 532h9.4v9.4h-9.4z"/><linearGradient id="SVGID_21_" gradientUnits="userSpaceOnUse" x1="5196.95" y1="-4223.483" x2="5178.106" y2="-4223.483" gradientTransform="rotate(-90 5137.19 441.008)"><stop offset="0" stop-color="#F89E2B"/><stop offset="1" stop-color="#F15D52"/></linearGradient><path class="st39" d="M465.2 400.1l5.6-18.9h3.8l5.6 18.9z"/><path class="st15" d="M466.9 394.4l-1.7 5.7h15l-1.7-5.7z"/><g><linearGradient id="SVGID_22_" gradientUnits="userSpaceOnUse" x1="5107.441" y1="-4272.355" x2="5107.441" y2="-4253.512" gradientTransform="rotate(-90 5137.19 441.008)"><stop offset="0" stop-color="#21AAC5"/><stop offset="1" stop-color="#626EB3"/></linearGradient><path class="st40" d="M423.8 409.5h18.8V532h-18.8z"/><path class="st41" d="M423.8 409.5h9.4V532h-9.4z"/><path class="st16" d="M429.2 420c1.1.4 2 .8 4 .8s2.9-.4 4-.8c1.3-.5 2.7-1.1 5.4-1.1v3.8c-2 0-2.9.4-4 .8-1.3.5-2.7 1.1-5.4 1.1s-4.1-.6-5.4-1.1c-1.1-.4-2-.8-4-.8v-3.8c2.7 0 4.2.6 5.4 1.1zM429.2 518c1.1.4 2 .8 4 .8s2.9-.4 4-.8c1.3-.5 2.7-1.1 5.4-1.1v3.8c-2 0-2.9.4-4 .8-1.3.5-2.7 1.1-5.4 1.1s-4.1-.6-5.4-1.1c-1.1-.4-2-.8-4-.8v-3.8c2.7 0 4.2.6 5.4 1.1z"/><path class="st42" d="M433.2 424.6v-3.8c-2 0-2.9-.4-4-.8-1.3-.5-2.7-1.1-5.4-1.1v3.8c2 0 2.9.4 4 .8 1.3.5 2.7 1.1 5.4 1.1zM433.2 522.6v-3.8c-2 0-2.9-.4-4-.8-1.3-.5-2.7-1.1-5.4-1.1v3.8c2 0 2.9.4 4 .8 1.3.5 2.7 1.1 5.4 1.1z"/><path class="st43" d="M423.8 532h18.8v9.4h-18.8zM423.8 400.1h18.8v9.4h-18.8z"/><path class="st16" d="M423.8 400.1h9.4v9.4h-9.4zM423.8 532h9.4v9.4h-9.4z"/><linearGradient id="SVGID_23_" gradientUnits="userSpaceOnUse" x1="5196.95" y1="-4262.934" x2="5178.106" y2="-4262.934" gradientTransform="rotate(-90 5137.19 441.008)"><stop offset="0" stop-color="#21AAC5"/><stop offset="1" stop-color="#626EB3"/></linearGradient><path class="st44" d="M425.7 400.1l5.7-18.9h3.7l5.7 18.9z"/><path class="st16" d="M427.4 394.4l-1.7 5.7h15.1l-1.7-5.7z"/></g><g><linearGradient id="SVGID_24_" gradientUnits="userSpaceOnUse" x1="5107.441" y1="-4174.611" x2="5107.441" y2="-4193.455" gradientTransform="rotate(-90 5137.19 441.008)"><stop offset="0" stop-color="#5CBB69"/><stop offset="1" stop-color="#BFD84D"/></linearGradient><path class="st45" d="M502.7 409.5h18.8V532h-18.8z"/><path class="st46" d="M502.7 409.5h9.4V532h-9.4z"/><path class="st47" d="M508.1 420c1.1.4 2 .8 4 .8s2.9-.4 4-.8c1.3-.5 2.7-1.1 5.4-1.1v3.8c-2 0-2.9.4-4 .8-1.3.5-2.7 1.1-5.4 1.1s-4.1-.6-5.4-1.1c-1.1-.4-2-.8-4-.8v-3.8c2.7 0 4.2.6 5.4 1.1zM508.1 518c1.1.4 2 .8 4 .8s2.9-.4 4-.8c1.3-.5 2.7-1.1 5.4-1.1v3.8c-2 0-2.9.4-4 .8-1.3.5-2.7 1.1-5.4 1.1s-4.1-.6-5.4-1.1c-1.1-.4-2-.8-4-.8v-3.8c2.7 0 4.2.6 5.4 1.1z"/><path class="st48" d="M512.1 424.6v-3.8c-2 0-2.9-.4-4-.8-1.3-.5-2.7-1.1-5.4-1.1v3.8c2 0 2.9.4 4 .8 1.3.5 2.7 1.1 5.4 1.1zM512.1 522.6v-3.8c-2 0-2.9-.4-4-.8-1.3-.5-2.7-1.1-5.4-1.1v3.8c2 0 2.9.4 4 .8 1.3.5 2.7 1.1 5.4 1.1z"/><path class="st49" d="M502.7 532h18.8v9.4h-18.8zM502.7 400.1h18.8v9.4h-18.8z"/><path class="st47" d="M502.7 400.1h9.4v9.4h-9.4zM502.7 532h9.4v9.4h-9.4z"/><linearGradient id="SVGID_25_" gradientUnits="userSpaceOnUse" x1="5178.106" y1="-4184.033" x2="5196.95" y2="-4184.033" gradientTransform="rotate(-90 5137.19 441.008)"><stop offset="0" stop-color="#5CBB69"/><stop offset="1" stop-color="#BFD84D"/></linearGradient><path class="st50" d="M504.6 400.1l5.7-18.9h3.7l5.7 18.9z"/><path class="st47" d="M506.3 394.4l-1.7 5.7h15.1l-1.7-5.7z"/></g></g><g><linearGradient id="SVGID_26_" gradientUnits="userSpaceOnUse" x1="550.578" y1="234.375" x2="550.578" y2="56.776"><stop offset="0" stop-color="#3C3E46"/><stop offset="1" stop-color="#5F5C6A"/></linearGradient><path class="st51" d="M421 234.4c-4.5-13-4.4-26.7-4.4-40v-3.6c0-73.9 60.1-134 134-134s134 60.1 134 134v3.6c0 13.3.1 27-4.4 40l-13.1-4.5c3.7-10.8 3.7-22.8 3.6-35.5v-3.6c0-66.2-53.9-120.1-120.1-120.1s-120.1 53.9-120.1 120.1v3.6c0 12.7-.1 24.7 3.6 35.5l-13.1 4.5z"/><linearGradient id="SVGID_27_" gradientUnits="userSpaceOnUse" x1="897.083" y1="194.354" x2="897.083" y2="304.588" gradientTransform="matrix(-1 0 0 1 1350.296 0)"><stop offset="0" stop-color="#03A8C6"/><stop offset="1" stop-color="#606CB2"/></linearGradient><path class="st52" d="M452.1 304.6h35.4V194.4h-35.4c-18.3 0-33.2 14.9-33.2 33.2v43.8c0 18.3 14.9 33.2 33.2 33.2z"/><path class="st53" d="M418.9 227.8h58.9v14.7h-58.9z"/><path class="st54 st55" d="M418.9 259.7v11.9c0 18.2 14.8 33 33 33h35.7v-11.9h-35.7c-18.2 0-33-14.8-33-33z"/><path class="st31" d="M484.7 313.4h-4.2c-5.7 0-10.4-4.6-10.4-10.4V195.9c0-5.7 4.6-10.4 10.4-10.4h4.2c5.7 0 10.4 4.6 10.4 10.4V303c-.1 5.8-4.7 10.4-10.4 10.4z"/><linearGradient id="SVGID_28_" gradientUnits="userSpaceOnUse" x1="195.365" y1="194.354" x2="195.365" y2="304.588" gradientTransform="translate(452.21)"><stop offset="0" stop-color="#03A8C6"/><stop offset="1" stop-color="#606CB2"/></linearGradient><path class="st56" d="M648.7 304.6h-35.4V194.4h35.4c18.3 0 33.2 14.9 33.2 33.2v43.8c0 18.3-14.9 33.2-33.2 33.2z"/><path class="st53" d="M623 227.8h58.9v14.7H623z"/><path class="st54 st55" d="M681.9 259.7v11.9c0 18.2-14.8 33-33 33h-35.7v-11.9h35.7c18.2 0 33-14.8 33-33z"/><path class="st31" d="M616.1 313.4h4.2c5.7 0 10.4-4.6 10.4-10.4V195.9c0-5.7-4.6-10.4-10.4-10.4h-4.2c-5.7 0-10.4 4.6-10.4 10.4V303c.1 5.8 4.7 10.4 10.4 10.4z"/><linearGradient id="SVGID_29_" gradientUnits="userSpaceOnUse" x1="686.72" y1="224.778" x2="686.72" y2="274.165"><stop offset="0" stop-color="#03A8C6"/><stop offset="1" stop-color="#606CB2"/></linearGradient><path class="st57" d="M687.8 274.2h-2.2c-2.1 0-3.7-1.7-3.7-3.7v-41.9c0-2.1 1.7-3.7 3.7-3.7h2.2c2.1 0 3.7 1.7 3.7 3.7v41.9c0 2-1.6 3.7-3.7 3.7z"/><path class="st58" d="M687.8 274.2h-2.2c-2.1 0-3.7-1.7-3.7-3.7v-41.9c0-2.1 1.7-3.7 3.7-3.7h2.2c2.1 0 3.7 1.7 3.7 3.7v41.9c0 2-1.6 3.7-3.7 3.7z"/><path class="st59" d="M681.9 235.1h9.6v11h-9.6z"/><linearGradient id="SVGID_30_" gradientUnits="userSpaceOnUse" x1="414.069" y1="224.778" x2="414.069" y2="274.165"><stop offset="0" stop-color="#03A8C6"/><stop offset="1" stop-color="#606CB2"/></linearGradient><path class="st60" d="M415.2 274.2H413c-2.1 0-3.7-1.7-3.7-3.7v-41.9c0-2.1 1.7-3.7 3.7-3.7h2.2c2.1 0 3.7 1.7 3.7 3.7v41.9c0 2-1.7 3.7-3.7 3.7z"/><path class="st58" d="M415.2 274.2H413c-2.1 0-3.7-1.7-3.7-3.7v-41.9c0-2.1 1.7-3.7 3.7-3.7h2.2c2.1 0 3.7 1.7 3.7 3.7v41.9c0 2-1.7 3.7-3.7 3.7z"/><path class="st59" d="M409.2 235.1h9.6v11h-9.6z"/><linearGradient id="SVGID_31_" gradientUnits="userSpaceOnUse" x1="550.577" y1="49.331" x2="550.577" y2="115.319"><stop offset="0" stop-color="#AEBCC0"/><stop offset="1" stop-color="#83949C"/></linearGradient><path class="st61" d="M640.4 115.3c-3.7 0-7.4-1.4-10.2-4.2-21.3-21.3-49.5-33-79.6-33-30.1 0-58.4 11.7-79.6 33-5.6 5.6-14.7 5.6-20.4 0-5.6-5.6-5.6-14.7 0-20.4 26.7-26.7 62.2-41.4 100-41.4s73.3 14.7 100 41.4c5.6 5.6 5.6 14.7 0 20.4-2.8 2.8-6.5 4.2-10.2 4.2z"/><g><path class="st24" d="M650.6 101.7c-2.8 2.8-6.5 4.2-10.2 4.2-3.7 0-7.4-1.4-10.2-4.2-21.3-21.3-49.5-33-79.6-33-30.1 0-58.4 11.7-79.6 33-5.6 5.6-14.7 5.6-20.4 0-1.6-1.6-2.7-3.5-3.4-5.5-1.7 5-.6 10.9 3.4 14.9 5.6 5.6 14.7 5.6 20.4 0 21.3-21.3 49.5-33 79.6-33 30.1 0 58.4 11.7 79.6 33 2.8 2.8 6.5 4.2 10.2 4.2 3.7 0 7.4-1.4 10.2-4.2 4-4 5.2-9.8 3.4-14.9-.7 2-1.8 3.9-3.4 5.5z"/></g></g><g><linearGradient id="SVGID_32_" gradientUnits="userSpaceOnUse" x1="233.08" y1="331.461" x2="233.08" y2="49.331"><stop offset="0" stop-color="#5D5B6A"/><stop offset="1" stop-color="#3C3D46"/></linearGradient><path class="st62" d="M358.9 312.7c0 10.3-8.5 18.8-18.8 18.8H126c-10.3 0-18.8-8.5-18.8-18.8V68.1c0-10.3 8.5-18.8 18.8-18.8h214.1c10.3 0 18.8 8.5 18.8 18.8v244.6z"/><circle class="st63" cx="133.1" cy="75.2" r="7.1"/><circle class="st63" cx="154.3" cy="75.2" r="7.1"/><circle class="st63" cx="175.4" cy="75.2" r="7.1"/><linearGradient id="SVGID_33_" gradientUnits="userSpaceOnUse" x1="126.038" y1="124.565" x2="255.481" y2="124.565"><stop offset="0" stop-color="#22ABC6"/><stop offset="1" stop-color="#626EB3"/></linearGradient><path class="st64" d="M250.8 129.3h-120c-2.6 0-4.7-2.1-4.7-4.7s2.1-4.7 4.7-4.7h120c2.6 0 4.7 2.1 4.7 4.7s-2.1 4.7-4.7 4.7z"/><linearGradient id="SVGID_34_" gradientUnits="userSpaceOnUse" x1="126.038" y1="218.608" x2="255.481" y2="218.608"><stop offset="0" stop-color="#C0D84E"/><stop offset="1" stop-color="#5CBC6A"/></linearGradient><path class="st65" d="M250.8 223.3h-120c-2.6 0-4.7-2.1-4.7-4.7s2.1-4.7 4.7-4.7h120c2.6 0 4.7 2.1 4.7 4.7s-2.1 4.7-4.7 4.7z"/><linearGradient id="SVGID_35_" gradientUnits="userSpaceOnUse" x1="158.953" y1="199.799" x2="307.205" y2="199.799"><stop offset="0" stop-color="#22ABC6"/><stop offset="1" stop-color="#626EB3"/></linearGradient><path class="st66" d="M302.5 204.5H163.7c-2.6 0-4.7-2.1-4.7-4.7s2.1-4.7 4.7-4.7h138.8c2.6 0 4.7 2.1 4.7 4.7s-2.1 4.7-4.7 4.7z"/><linearGradient id="SVGID_36_" gradientUnits="userSpaceOnUse" x1="140.145" y1="143.373" x2="307.205" y2="143.373"><stop offset="0" stop-color="#C0D84E"/><stop offset="1" stop-color="#5CBC6A"/></linearGradient><path class="st67" d="M302.5 148.1H144.8c-2.6 0-4.7-2.1-4.7-4.7s2.1-4.7 4.7-4.7h157.7c2.6 0 4.7 2.1 4.7 4.7s-2.1 4.7-4.7 4.7z"/><linearGradient id="SVGID_37_" gradientUnits="userSpaceOnUse" x1="158.953" y1="180.991" x2="326.014" y2="180.991"><stop offset="0" stop-color="#FFCF30"/><stop offset="1" stop-color="#F89E2B"/></linearGradient><path class="st68" d="M321.3 185.7H163.7c-2.6 0-4.7-2.1-4.7-4.7s2.1-4.7 4.7-4.7h157.7c2.6 0 4.7 2.1 4.7 4.7s-2.2 4.7-4.8 4.7z"/><linearGradient id="SVGID_38_" gradientUnits="userSpaceOnUse" x1="140.145" y1="162.182" x2="231.97" y2="162.182"><stop offset="0" stop-color="#F89E2B"/><stop offset="1" stop-color="#F05060"/></linearGradient><path class="st69" d="M227.3 166.9h-82.4c-2.6 0-4.7-2.1-4.7-4.7s2.1-4.7 4.7-4.7h82.4c2.6 0 4.7 2.1 4.7 4.7s-2.1 4.7-4.7 4.7z"/></g><g><path class="st31" d="M111.3 386.7s202.9 17.3 211.5 22.5c8.6 5.2 22.5 15.5 24.9 23.5 2.4 8-14 7.5-18 2.3s-11.8-15.5-16.5-17.2-197.8-12.1-197.8-12.1l-4.1-19z"/><path class="st31" d="M358.4 390.8s-202.9 17.3-211.5 22.5-22.5 15.5-24.9 23.5c-2.4 8 16.3 8.6 20.3 3.4 4-5.2 9.6-16.7 14.3-18.4s197.8-12.1 197.8-12.1l4-18.9z"/><linearGradient id="SVGID_39_" gradientUnits="userSpaceOnUse" x1="234.923" y1="474.125" x2="234.923" y2="377.617"><stop offset="0" stop-color="#5D5B6A"/><stop offset="1" stop-color="#3C3D46"/></linearGradient><path class="st70" d="M165.9 377.7c14.5-.5 29.7 1.5 44.5 6.2 16.2 5.1 32.6 5.2 48.8.1 13.5-4.2 27.3-6.3 41.5-6.3 17.5 0 34.7 1.7 51.5 6.8 2.3.7 4.6 1.6 6.8 2.4 1.6.6 2.5 1.7 2.6 3.6.2 4.7.6 9.4 1 14.1.2 2.2-.6 3.6-2.5 4.4-2.2.9-3.1 2.4-3.5 4.7-2.1 11.4-5 22.5-8.4 33.5-4.1 13.2-13.1 21-26.2 24.3-13.9 3.5-27.8 3.7-41.6-.8-11.2-3.7-20.2-10.4-25.8-21.2-3.8-7.3-6.4-14.9-9-22.6-.9-2.6-2-5-3-7.5-1.5-3.8-4.4-4.6-8-4.6-3.6 0-6 1.4-7.5 4.8-2.2 4.9-3.7 9.9-5.5 15-2.3 6.8-5.2 13.3-9.1 19.4-3.3 5.1-7.7 9-13 12.1-10 5.9-20.8 8-32.3 7.9-6.5 0-12.9-.8-19.3-2.4-5.4-1.3-10.3-3.6-14.7-6.8-5.5-4-8.8-9.6-11-15.9-4-11.5-6.9-23.4-9.1-35.4-.4-2.2-1.3-3.6-3.3-4.4-2-.8-2.8-2.2-2.6-4.5.5-4.6.8-9.2 1-13.7.1-2.2 1.1-3.3 3-4.1 7.2-2.9 14.7-4.8 22.3-6.1 10.5-2 20.9-3 32.4-3zm2.5 13.1c-3.9.3-8.5.2-13 .8-6.1.8-12.2 1.9-17.8 4.7-3.8 1.9-7.1 4.2-8.1 8.8-.6 2.6-.9 5.2-.8 7.8.4 10.3 2.4 20.3 5.4 30.1 2.7 8.7 8.5 14.2 17.3 16.3 11.1 2.7 22.3 2.6 33.2-.8 8-2.5 14.2-7.3 18.1-14.8 2.3-4.4 4.3-9 5.8-13.8 2.3-7.3 4.3-14.6 3.3-22.4-.6-4.3-2.4-7.8-6.4-10-1.9-1-3.7-1.9-5.7-2.5-10.1-3.3-20.3-4-31.3-4.2zm132.7 0c-6.9.2-13.5.4-20.1 1.6-5.9 1.1-11.7 2.4-16.9 5.4-2.9 1.7-4.7 4.1-5.5 7.3-.8 3-.9 6.1-.6 9.2 1 9.9 4.3 19 8.5 27.9 3.9 8.3 10.4 13.6 19.1 16.3 9.8 3 19.8 3.1 29.8 1.4 9.9-1.7 17.1-6.8 20.3-16.6 3.3-10.1 5.3-20.4 5.6-31.1.3-9.2-3-13.9-11.6-17.2-.4-.2-.9-.3-1.3-.5-9-3-18.3-3.5-27.3-3.7z"/><g class="st54"><path class="st71" d="M329.7 395.1c-.4-.2-.9-.3-1.3-.5-8.9-3.1-18.2-3.6-27.3-3.8-6.9.2-13.5.4-20.1 1.6-5.9 1.1-11.7 2.4-16.9 5.4-2.9 1.7-4.7 4.1-5.5 7.3-.8 3-.9 6.1-.6 9.2 1 9.9 4.3 19 8.5 27.9 3.9 8.3 10.4 13.6 19.1 16.3 9.8 3 19.8 3.1 29.8 1.4 9.9-1.7 17.1-6.8 20.3-16.6 3.3-10.1 5.3-20.4 5.6-31.1.2-9.2-3-13.9-11.6-17.1zM205.3 397.6c-1.9-1-3.7-1.9-5.7-2.5-9.9-3.3-20.1-4-31.2-4.3-3.9.3-8.5.2-13 .8-6.1.8-12.2 1.9-17.8 4.7-3.8 1.9-7.1 4.2-8.1 8.8-.6 2.6-.9 5.2-.8 7.8.4 10.3 2.4 20.3 5.4 30.1 2.7 8.7 8.5 14.2 17.3 16.3 11.1 2.7 22.3 2.6 33.2-.8 8-2.5 14.2-7.3 18.1-14.8 2.3-4.4 4.3-9 5.8-13.8 2.3-7.3 4.3-14.6 3.3-22.4-.7-4.3-2.5-7.8-6.5-9.9z"/></g><g class="st72"><path class="st71" d="M199.5 395c-4.4-1.5-8.9-2.4-13.5-3l-51.7 51.7c2.1 6 5.6 10.4 10.7 13.1l59.6-59.6c-1.6-.8-3.3-1.6-5.1-2.2zM168.4 390.8c-1.6.1-3.3.2-5.1.2l-33.5 33.5c.5 3.4 1.2 6.7 2 10l43.5-43.5c-2.3-.1-4.6-.2-6.9-.2z"/></g><g class="st72"><path class="st71" d="M329.7 395.1c-.4-.2-.9-.3-1.3-.5-3.9-1.4-7.8-2.2-11.7-2.8L266.5 442s0 .1.1.1c2.5 5.4 6.1 9.5 10.7 12.5l57.3-57.3c-1.5-.8-3.1-1.5-4.9-2.2zM301.1 390.8c-2.4.1-4.9.1-7.3.3L259.9 425c.8 3 1.8 6 2.9 8.9l42.9-42.9c-1.5-.1-3.1-.2-4.6-.2z"/></g></g><g><linearGradient id="SVGID_40_" gradientUnits="userSpaceOnUse" x1="1445.611" y1="160.464" x2="1445.611" y2="48.578"><stop offset="0" stop-color="#59BA65"/><stop offset="1" stop-color="#BDD741"/></linearGradient><path class="st73" d="M1490.3 160.5h-89.4c-9.5 0-17.2-7.7-17.2-17.2V65.8c0-9.5 7.7-17.2 17.2-17.2h89.4c9.5 0 17.2 7.7 17.2 17.2v77.4c0 9.5-7.7 17.3-17.2 17.3z"/><path class="st74" d="M1421.1 117.7l-2.9 7.3h-11.5l16.1-41.8h11.9l15.7 41.8h-11.6l-2.7-7.3h-15zm7.6-21.6h-.1l-4.5 13.3h9l-4.4-13.3zM1484.6 124.9h-10.1v-3.2h-.1c-1.8 2.8-5.3 4.1-8.6 4.1-8.4 0-14.4-7-14.4-15.2s5.8-15.1 14.2-15.1c3.3 0 6.7 1.2 8.8 3.7v-2.8h10.1v28.5zm-22.8-14.1c0 3.6 2.4 6.4 6.5 6.4s6.5-2.8 6.5-6.4c0-3.5-2.4-6.4-6.5-6.4s-6.5 2.9-6.5 6.4z"/></g><g><linearGradient id="SVGID_41_" gradientUnits="userSpaceOnUse" x1="1069.168" y1="154.436" x2="1069.168" y2="49.331"><stop offset="0" stop-color="#F15B51"/><stop offset="1" stop-color="#F89E2B"/></linearGradient><path class="st75" d="M1025.4 49.3c-19.3 0-35 15.7-35 35v35c0 19.3 15.7 35 35 35H1148v-105h-122.6z"/><path class="st4" d="M1025.4 119.4v-35c0-19.3 15.7-35 35-35h-17.5c-19.3 0-35 15.7-35 35v35c0 19.3 15.7 35 35 35h17.5c-19.3 0-35-15.7-35-35zM1095.4 119.4v-35c0-19.3 15.7-35 35-35H1113c-19.3 0-35 15.7-35 35v35c0 19.3 15.7 35 35 35h17.5c-19.4 0-35.1-15.7-35.1-35z"/><linearGradient id="SVGID_42_" gradientUnits="userSpaceOnUse" x1="1231.205" y1="136.918" x2="1231.205" y2="66.848"><stop offset="0" stop-color="#B1BFC3"/><stop offset="1" stop-color="#F1F2F3"/></linearGradient><path class="st76" d="M1130.5 66.8H1332v70.1h-201.5z"/><path class="st14" d="M1130.5 69.1v67.8h8.8v-35c0-9.7 7.8-17.5 17.5-17.5H1332V66.8h-200.3c-.5.8-.8 1.6-1.2 2.3z"/><path class="st14" d="M1235.6 101.9h17.5v35h-17.5z"/><path class="st77" d="M1148 49.3c-19.3 0-35 15.7-35 35v35c0 19.3 15.7 35 35 35h192.7v-17.5H1148c-9.7 0-17.5-7.8-17.5-17.5v-35c0-9.7 7.8-17.5 17.5-17.5h192.7V49.3H1148z"/><linearGradient id="SVGID_43_" gradientUnits="userSpaceOnUse" x1="1270.62" y1="154.436" x2="1270.62" y2="101.883"><stop offset="0" stop-color="#626EB3"/><stop offset="1" stop-color="#22ABC6"/></linearGradient><path class="st78" d="M1288.1 101.9h-52.6c9.7 0 17.5 7.8 17.5 17.5v35l26.3-17.5 26.3 17.5v-35c.1-9.7-7.8-17.5-17.5-17.5z"/></g><g><linearGradient id="SVGID_44_" gradientUnits="userSpaceOnUse" x1="990.34" y1="249.464" x2="1340.69" y2="249.464"><stop offset="0" stop-color="#22ABC6"/><stop offset="1" stop-color="#626EB3"/></linearGradient><path class="st79" d="M1317.3 214.4h-303.6c-12.9 0-23.4 10.5-23.4 23.4v46.7h350.4v-46.7c0-12.9-10.5-23.4-23.4-23.4z"/><linearGradient id="SVGID_45_" gradientUnits="userSpaceOnUse" x1="1165.515" y1="284.499" x2="1165.515" y2="541.422"><stop offset="0" stop-color="#F0EFF0"/><stop offset="1" stop-color="#AEBCC0"/></linearGradient><path class="st80" d="M1013.7 541.4h303.6c12.9 0 23.4-10.5 23.4-23.4V284.5H990.3v233.6c0 12.9 10.5 23.3 23.4 23.3z"/><path class="st24" d="M1200.5 321.9h93.4v18.7h-93.4zM1200.5 373.3h93.4v9.3h-93.4zM1200.5 396.6h93.4v9.3h-93.4zM1200.5 420h93.4v9.3h-93.4zM1037.1 443.3H1294v9.3h-256.9zM1037.1 466.7H1294v9.3h-256.9zM1037.1 490h163.5v9.3h-163.5z"/><path class="st53" d="M1037.1 321.9v95.5l35.8-35.8v47.7h107.4V321.9z"/><path class="st71" d="M1037.1 417.4v11.9h35.8v-47.7z"/><linearGradient id="SVGID_46_" gradientUnits="userSpaceOnUse" x1="1054.966" y1="429.305" x2="1054.966" y2="381.556"><stop offset="0" stop-color="#C0D84E"/><stop offset="1" stop-color="#5CBC6A"/></linearGradient><path class="st81" d="M1037.1 417.4v11.9h35.8v-47.7z"/><path class="st71" d="M1120.6 357.7c-6.6 0-11.9 5.3-11.9 11.9h23.9c0-6.6-5.4-11.9-12-11.9zM1168.4 369.6h11.9v-11.9c-6.6 0-11.9 5.3-11.9 11.9z"/><path class="st71" d="M1150.5 345.7c-13.2 0-23.9 10.7-23.9 23.9h47.7c0-13.2-10.6-23.9-23.8-23.9z"/><circle class="st71" cx="1126.6" cy="357.7" r="6"/><linearGradient id="SVGID_47_" gradientUnits="userSpaceOnUse" x1="1120.621" y1="429.305" x2="1120.621" y2="357.682"><stop offset="0" stop-color="#C0D84E"/><stop offset="1" stop-color="#5CBC6A"/></linearGradient><path class="st82" d="M1084.8 429.3l71.6-71.6v71.6z"/><path class="st83" d="M1072.9 381.6l47.7 47.7h-47.7zM1156.4 357.7l23.9 23.9v47.7h-23.9z"/><path class="st71" d="M1037.1 369.6c26.4 0 47.7-21.4 47.7-47.7h-47.7v47.7z"/><g><path class="st35" d="M1087.7 237.8h227.7v23.4h-227.7z"/><circle class="st16" cx="1021.4" cy="249.5" r="5.8"/><circle class="st16" cx="1038.9" cy="249.5" r="5.8"/><circle class="st16" cx="1056.4" cy="249.5" r="5.8"/></g></g><g><linearGradient id="SVGID_48_" gradientUnits="userSpaceOnUse" x1="1451.999" y1="243.772" x2="1451.999" y2="197.017"><stop offset="0" stop-color="#2CC1DC"/><stop offset=".404" stop-color="#6CCBDF"/><stop offset="1" stop-color="#A5DBE2"/></linearGradient><path class="st84" d="M1396.5 220.4c0 12.9 25.6 23.4 55.5 23.4s55.5-10.5 55.5-23.4c0-12.9-25.6-23.4-55.5-23.4s-55.5 10.5-55.5 23.4z"/><g class="st85"><defs><path id="SVGID_108_" class="st85" d="M1396.5 220.4c0 12.9 25.6 23.4 55.5 23.4s55.5-10.5 55.5-23.4c0-12.9-25.6-23.4-55.5-23.4s-55.5 10.5-55.5 23.4z"/></defs><clipPath id="SVGID_49_"><use xlink:href="#SVGID_108_" overflow="visible"/></clipPath><g class="st86"><path class="st87" d="M1366.4 193.6v374.3M1375.9 193.6v374.3M1385.4 193.6v374.3M1394.8 193.6v374.3M1404.3 193.6v374.3M1413.8 193.6v374.3M1423.3 193.6v374.3M1432.7 193.6v374.3M1442.2 193.6v374.3M1451.7 193.6v374.3M1461.1 193.6v374.3M1470.6 193.6v374.3M1480.1 193.6v374.3M1489.6 193.6v374.3M1499 193.6v374.3M1508.5 193.6v374.3M1513.2 193.6v374.3"/></g><g class="st86"><path class="st87" d="M1396.5 229.7c0 12.9 25.6 23.4 55.5 23.4s55.5-10.5 55.5-23.4-25.6-23.4-55.5-23.4-55.5 10.4-55.5 23.4z"/><path class="st87" d="M1396.5 238.9c0 12.9 25.6 23.4 55.5 23.4s55.5-10.5 55.5-23.4-25.6-23.4-55.5-23.4-55.5 10.5-55.5 23.4z"/><path class="st87" d="M1396.5 248.2c0 12.9 25.6 23.4 55.5 23.4s55.5-10.5 55.5-23.4-25.6-23.4-55.5-23.4-55.5 10.5-55.5 23.4z"/></g></g><linearGradient id="SVGID_50_" gradientUnits="userSpaceOnUse" x1="1483.586" y1="224.559" x2="1415.036" y2="224.559"><stop offset="0" stop-color="#2CC1DC"/><stop offset="1" stop-color="#A5DBE2"/></linearGradient><path class="st88" d="M1483.6 239.3v-26.8s-44.3-11.4-65 2.9c-17.2 11.7 32.1 31.6 65 23.9z"/><g class="st85"><defs><path id="SVGID_111_" class="st85" d="M1483.6 239.3v-26.8s-44.3-11.4-65 2.9c-17.2 11.7 32.1 31.6 65 23.9z"/></defs><clipPath id="SVGID_51_"><use xlink:href="#SVGID_111_" overflow="visible"/></clipPath><g class="st89"><path class="st87" d="M1364.6 193.6v374.3M1369.3 193.6v374.3M1374.1 193.6v374.3M1378.8 193.6v374.3M1383.5 193.6v374.3M1388.3 193.6v374.3M1393 193.6v374.3M1397.7 193.6v374.3M1402.5 193.6v374.3M1407.2 193.6v374.3M1411.9 193.6v374.3M1421.4 193.6v374.3M1430.9 193.6v374.3M1440.3 193.6v374.3M1449.8 193.6v374.3M1459.3 193.6v374.3M1468.8 193.6v374.3M1478.2 193.6v374.3M1487.7 193.6v374.3M1492.4 193.6v374.3M1497.2 193.6v374.3M1501.9 193.6v374.3M1506.6 193.6v374.3M1511.4 193.6v374.3"/></g><g class="st89"><path class="st87" d="M1483.6 221.2s-39.7-13.1-66.2 3.4M1483.6 229s-39.1-10.2-59.7.4M1483.7 236.9s-37.4-9.1-55-.8"/></g></g><linearGradient id="SVGID_52_" gradientUnits="userSpaceOnUse" x1="1415.036" y1="380.743" x2="1507.524" y2="380.743"><stop offset="0" stop-color="#2CC1DC"/><stop offset=".254" stop-color="#51C6DD"/><stop offset=".754" stop-color="#8AD3E0"/><stop offset="1" stop-color="#A5DBE2"/></linearGradient><path class="st90" d="M1507.5 220.4s-6.6 16.6-49 15.8c-41.1-.8-43.5-15.8-43.5-15.8v17.8l.5 295.7s51.4 14.5 78.1 2.2c0 0 11-4.5 13.7-12.8l.2-302.9z"/><g class="st85"><defs><path id="SVGID_114_" class="st85" d="M1507.5 220.4s-6.6 16.6-49 15.8c-41.1-.8-43.5-15.8-43.5-15.8v17.8l.5 295.7s51.4 14.5 78.1 2.2c0 0 11-4.5 13.7-12.8l.2-302.9z"/></defs><clipPath id="SVGID_53_"><use xlink:href="#SVGID_114_" overflow="visible"/></clipPath><g class="st91"><path class="st87" d="M1363.8 193.6v374.3M1368.5 193.6v374.3M1373.2 193.6v374.3M1378 193.6v374.3M1382.7 193.6v374.3M1387.4 193.6v374.3M1392.2 193.6v374.3M1396.9 193.6v374.3M1401.6 193.6v374.3M1406.4 193.6v374.3M1411.1 193.6v374.3M1420.6 193.6v374.3M1430.1 193.6v374.3M1439.5 193.6v374.3M1449 193.6v374.3M1458.5 193.6v374.3M1467.9 193.6v374.3M1477.4 193.6v374.3M1486.9 193.6v374.3M1496.3 193.6v374.3M1505.8 193.6v374.3M1510.6 193.6v374.3"/></g><g class="st91"><path class="st87" d="M1415 232.9s43.9 25.2 92.3.7M1415 241.3s37 24.5 92.3.7M1415 249.5s37 24.5 92.3.7M1415 257.8s37 24.5 92.3.7M1415 266s37 24.5 92.3.7M1415 274.2s37 24.5 92.3.7M1415 282.5s37 24.5 92.3.7M1415 290.7s37 24.5 92.3.7M1415 299s37 24.5 92.3.7M1415 307.2s37 24.5 92.3.7M1415 315.4s37 24.5 92.3.7M1415 323.7s37 24.5 92.3.7M1415 331.9s37 24.5 92.3.7M1415 340.2s37 24.5 92.3.7M1415 348.4s37 24.5 92.3.7M1415 356.7s37 24.5 92.3.7M1415 364.9s37 24.5 92.3.7M1415 373.1s37 24.5 92.3.7M1415 381.4s37 24.5 92.3.7M1415 389.6s37 24.5 92.3.7M1415 397.9s37 24.5 92.3.7M1415 406.1s37 24.5 92.3.7M1415 414.3s37 24.5 92.3.7M1415 422.6s37 24.5 92.3.7M1415 430.8s37 24.5 92.3.7M1415 439.1s37 24.5 92.3.7M1415 447.3s37 24.5 92.3.7M1415 455.6s37 24.5 92.3.7M1415 463.8s37 24.5 92.3.7M1415 472s37 24.5 92.3.7M1415 480.3s37 24.5 92.3.7M1415 488.5s37 24.5 92.3.7M1415 496.8s37 24.5 92.3.7M1415 505s37 24.5 92.3.7M1415 513.2s37 24.5 92.3.7M1415 521.5s37 24.5 92.3.7"/></g></g><path class="st92" d="M1455.8 251.2v289.3c2.2.2 4.5.4 7 .5h2.3V250.3c-.1 0-3.8 1.7-9.3.9z"/><linearGradient id="SVGID_54_" gradientUnits="userSpaceOnUse" x1="1396.474" y1="386.303" x2="1455.755" y2="386.303"><stop offset="0" stop-color="#2CC1DC"/><stop offset="1" stop-color="#A5DBE2"/></linearGradient><path class="st93" d="M1455.8 551.4V243.8s-41.9 2.5-59.2-22.6v303.4c-.1 0 2.1 24.8 59.2 26.8z"/><g class="st85"><defs><path id="SVGID_117_" class="st85" d="M1455.8 551.4V243.8s-41.9 2.5-59.2-22.6v303.4c-.1 0 2.1 24.8 59.2 26.8z"/></defs><clipPath id="SVGID_55_"><use xlink:href="#SVGID_117_" overflow="visible"/></clipPath><g class="st94"><path class="st87" d="M1305.3 193.6v374.3M1310 193.6v374.3M1314.8 193.6v374.3M1319.5 193.6v374.3M1324.2 193.6v374.3M1329 193.6v374.3M1333.7 193.6v374.3M1338.4 193.6v374.3M1343.2 193.6v374.3M1347.9 193.6v374.3M1352.6 193.6v374.3M1357.4 193.6v374.3M1362.1 193.6v374.3M1366.9 193.6v374.3M1371.6 193.6v374.3M1376.3 193.6v374.3M1381.1 193.6v374.3M1385.8 193.6v374.3M1390.5 193.6v374.3M1395.3 193.6v374.3M1400 193.6v374.3M1409.5 193.6v374.3M1418.9 193.6v374.3M1428.4 193.6v374.3M1437.9 193.6v374.3M1447.4 193.6v374.3"/></g><g class="st94"><path class="st87" d="M1396.5 229.6s12.2 19.5 59.3 19.5M1396.5 241.2s13.9 16.8 59.3 16.7M1455.8 267.4s-39.7 1.2-59.2-15.3M1455.8 277s-39.2 2.2-59.3-14.2M1455.8 286.4s-40.3 2.1-59.3-12.5M1455.8 296.2s-44 2.6-59.2-11.7M1455.8 305.9s-43.4 2.5-59.3-10.8M1455.8 316s-43.1 3.8-59.3-10.9M1455.8 326.2s-43.1 3.8-59.3-10.9M1455.8 336.4s-43.1 3.8-59.3-10.9M1455.8 346.6s-43.1 3.8-59.3-10.9M1455.8 356.9s-43.1 3.8-59.3-10.9M1455.8 367.1s-43.1 3.8-59.3-10.9M1455.8 377.3s-43.1 3.8-59.3-10.9M1455.8 387.5s-43.1 3.8-59.3-10.9M1455.8 397.7s-43.1 3.8-59.3-10.9M1455.8 407.9s-43.1 3.8-59.3-10.9M1455.8 418.1s-43.1 3.8-59.3-10.9M1455.8 428.3s-43.1 3.8-59.3-10.9M1455.8 438.5s-43.1 3.8-59.3-10.9M1455.8 448.7s-43.1 3.8-59.3-10.9M1455.8 458.9s-43.1 3.8-59.3-10.9M1455.8 469.1s-43.1 3.8-59.3-10.9M1455.8 479.3s-43.1 3.8-59.3-10.9M1455.8 489.6s-43.1 3.8-59.3-10.9M1455.8 499.8s-43.1 3.8-59.3-10.9M1455.8 510s-43.1 3.8-59.3-10.9M1455.8 520.2s-43.1 3.8-59.3-10.9M1455.8 530.4s-43.1 3.8-59.3-10.9M1455.8 540.6s-43.1 3.8-59.3-10.9"/></g></g></g></svg>