<svg id="图层_1" xmlns="http://www.w3.org/2000/svg" viewBox="0 0 1920 1080"><style>.st0{fill:#006bba}.st1{fill:#2ab6f4}.st2{fill:#00a6fb}.st3{fill:none}.st4{fill:#82d8f9}.st5{fill:#fff}.st6{fill:#008cdb}.st7{fill:#e0f4fc}.st8{fill:#b4e5f9}.st9{fill:#008cdb;fill-opacity:0}</style><g id="Illustration"><circle class="st0" cx="921.6" cy="502.2" r="169.1"/><path class="st1" d="M921.6 673.6c-94.5 0-171.3-76.9-171.3-171.3S827.2 331 921.6 331 1093 407.8 1093 502.2s-76.9 171.4-171.4 171.4zm0-338.2c-92 0-166.8 74.8-166.8 166.8S829.6 669 921.6 669s166.8-74.8 166.8-166.8-74.8-166.8-166.8-166.8z"/><path transform="rotate(-58.216 323.098 648.64)" class="st2" d="M319.7 503.6h6.7v290h-6.7z"/><path class="st2" d="M1514.8 545.6l-3.2-5.9 220.9-154 3.2 5.9zM1001.7 359.2l-3.8-5.5 180.4-108.3 3.9 5.5zM1079.7 450.3l-1-6.7 263.3-30 .9 6.7z"/><path transform="rotate(-13.557 791.346 240.447)" class="st2" d="M686.4 237.1h209.9v6.7H686.4z"/><path transform="rotate(-14.511 739.489 664.121)" class="st2" d="M657.9 660.8H821v6.7H657.9z"/><path class="st2" d="M448 727.9l-3.1-6 210.6-42.2 3.1 5.9zM1098.2 723.8l-277.5 76.1 3.7-5.5 277.5-76.2z"/><path class="st2" d="M821.1 800.2L655.6 685.7l3-6.1L824 794.1z"/><path transform="rotate(-2.425 1131.694 652.547)" class="st2" d="M1003.4 649.2H1260v6.7h-256.6z"/><path class="st2" d="M1263.1 831.2l-154.6-108.6 1.5-6.6 154.6 108.6z"/><path transform="rotate(-63.237 1130.064 472.492)" class="st2" d="M1126.7 415.6h6.7v113.9h-6.7z"/><path class="st2" d="M1339.3 418.1l-184.7-144.3 6.3-2.2 184.7 144.3z"/><path transform="rotate(-27.498 1220.44 574.003)" class="st2" d="M1218.2 488.5h4.5v170.9h-4.5z"/><path transform="rotate(-69.452 867.099 286.135)" class="st2" d="M792.1 282.8h150.1v6.7H792.1z"/><path transform="rotate(-20.97 610.156 560.097)" class="st2" d="M606.8 428.9h6.7v262.4h-6.7z"/><path transform="rotate(-73.889 1397.087 689.567)" class="st2" d="M1393.7 546.6h6.7v285.8h-6.7z"/><path class="st2" d="M1181 501.6l-.1-6.7 329.2 43.8v6.7z"/><path class="st3" d="M1344.7 419.4l-4.5-4.9"/><path class="st2" d="M1533.1 724.5L1339.8 419l5.3-4.1 193.3 305.5z"/><path transform="rotate(-64.183 703.785 586.126)" class="st2" d="M596.5 582.8H811v6.7H596.5z"/><circle class="st4" cx="1003.5" cy="658" r="5.3"/><path class="st2" d="M1003.5 652.8c2.9 0 5.3 2.4 5.3 5.3s-2.4 5.3-5.3 5.3-5.3-2.4-5.3-5.3 2.4-5.3 5.3-5.3m0-1.8c-3.9 0-7 3.1-7 7s3.1 7 7 7 7-3.1 7-7-3.1-7-7-7z"/><circle class="st4" cx="818.4" cy="643.6" r="5.3"/><path class="st2" d="M818.4 638.3c2.9 0 5.3 2.4 5.3 5.3s-2.4 5.3-5.3 5.3-5.3-2.4-5.3-5.3 2.4-5.3 5.3-5.3m0-1.7c-3.9 0-7 3.1-7 7s3.1 7 7 7 7-3.1 7-7-3.1-7-7-7z"/><circle class="st4" cx="840.8" cy="356.5" r="5.3"/><path class="st2" d="M840.8 351.2c2.9 0 5.3 2.4 5.3 5.3s-2.4 5.3-5.3 5.3-5.3-2.4-5.3-5.3 2.4-5.3 5.3-5.3m0-1.7c-3.9 0-7 3.1-7 7s3.1 7 7 7 7-3.1 7-7-3.2-7-7-7z"/><circle class="st4" cx="999.8" cy="356.5" r="5.3"/><path class="st2" d="M999.8 351.2c2.9 0 5.3 2.4 5.3 5.3s-2.4 5.3-5.3 5.3-5.3-2.4-5.3-5.3 2.4-5.3 5.3-5.3m0-1.7c-3.9 0-7 3.1-7 7s3.1 7 7 7 7-3.1 7-7-3.1-7-7-7z"/><circle class="st4" cx="1079.2" cy="446.9" r="5.3"/><path class="st2" d="M1079.2 441.7c2.9 0 5.3 2.4 5.3 5.3s-2.4 5.3-5.3 5.3-5.3-2.4-5.3-5.3c0-3 2.4-5.3 5.3-5.3m0-1.8c-3.9 0-7 3.1-7 7s3.1 7 7 7 7-3.1 7-7c0-3.8-3.1-7-7-7z"/><circle class="st4" cx="750.5" cy="489.5" r="5.3"/><path class="st2" d="M750.5 484.3c2.9 0 5.3 2.4 5.3 5.3s-2.4 5.3-5.3 5.3-5.3-2.4-5.3-5.3 2.4-5.3 5.3-5.3m0-1.8c-3.9 0-7 3.1-7 7s3.1 7 7 7 7-3.1 7-7-3.2-7-7-7z"/><circle class="st2" cx="563.3" cy="445.4" r="78.5"/><path class="st4" d="M563.3 370.4c41.3 0 75 33.6 75 75s-33.6 75-75 75-75-33.6-75-75 33.6-75 75-75m0-3.5c-43.3 0-78.5 35.1-78.5 78.5s35.1 78.5 78.5 78.5 78.5-35.1 78.5-78.5-35.2-78.5-78.5-78.5z"/><circle class="st0" cx="1510.9" cy="539.9" r="27.4"/><path class="st2" d="M1510.9 516c13.2 0 23.9 10.7 23.9 23.9s-10.7 23.9-23.9 23.9-23.9-10.7-23.9-23.9 10.7-23.9 23.9-23.9m0-3.5c-15.2 0-27.4 12.3-27.4 27.4s12.3 27.4 27.4 27.4c15.2 0 27.4-12.3 27.4-27.4s-12.3-27.4-27.4-27.4z"/><circle class="st2" cx="1534.4" cy="729" r="78.5"/><path class="st4" d="M1534.4 654.1c41.3 0 75 33.6 75 75s-33.6 75-75 75c-41.3 0-75-33.6-75-75s33.7-75 75-75m0-3.6c-43.3 0-78.5 35.1-78.5 78.5s35.1 78.5 78.5 78.5c43.3 0 78.5-35.1 78.5-78.5s-35.2-78.5-78.5-78.5z"/><circle class="st2" cx="1109.3" cy="719.3" r="78.5"/><path class="st4" d="M1109.3 644.3c41.3 0 75 33.6 75 75s-33.6 75-75 75c-41.3 0-75-33.6-75-75s33.6-75 75-75m0-3.5c-43.3 0-78.5 35.1-78.5 78.5s35.1 78.5 78.5 78.5c43.3 0 78.5-35.1 78.5-78.5s-35.2-78.5-78.5-78.5z"/><circle class="st0" cx="822.5" cy="797.1" r="32.4"/><path class="st2" d="M822.5 768.2c15.9 0 28.9 13 28.9 28.9s-13 28.9-28.9 28.9-28.9-13-28.9-28.9 13-28.9 28.9-28.9m0-3.5c-17.9 0-32.4 14.5-32.4 32.4s14.5 32.4 32.4 32.4 32.4-14.5 32.4-32.4c.1-17.9-14.4-32.4-32.4-32.4z"/><circle class="st0" cx="206.6" cy="574.7" r="47"/><path class="st2" d="M206.6 531.2c24 0 43.5 19.5 43.5 43.5s-19.5 43.5-43.5 43.5-43.5-19.5-43.5-43.5 19.5-43.5 43.5-43.5m0-3.5c-26 0-47 21-47 47s21 47 47 47 47-21 47-47-21-47-47-47z"/><circle class="st0" cx="1259.8" cy="647.2" r="36.5"/><path class="st2" d="M1259.8 614.2c18.2 0 33 14.8 33 33s-14.8 33-33 33-33-14.8-33-33c.1-18.2 14.9-33 33-33m0-3.5c-20.2 0-36.5 16.3-36.5 36.5s16.3 36.5 36.5 36.5 36.5-16.3 36.5-36.5-16.3-36.5-36.5-36.5z"/><circle class="st0" cx="657.1" cy="682.6" r="37.2"/><path class="st2" d="M657.1 649c18.6 0 33.7 15.1 33.7 33.7s-15.1 33.7-33.7 33.7-33.7-15.1-33.7-33.7 15.1-33.7 33.7-33.7m0-3.5c-20.5 0-37.2 16.6-37.2 37.2s16.6 37.2 37.2 37.2 37.2-16.6 37.2-37.2-16.7-37.2-37.2-37.2z"/><g><circle class="st2" cx="444.5" cy="719.4" r="78.5"/><path class="st4" d="M444.5 644.4c41.3 0 75 33.6 75 75 0 41.3-33.6 75-75 75s-75-33.6-75-75 33.7-75 75-75m0-3.5c-43.3 0-78.5 35.1-78.5 78.5 0 43.3 35.1 78.5 78.5 78.5s78.5-35.1 78.5-78.5-35.1-78.5-78.5-78.5z"/></g><g><circle class="st0" cx="1263.8" cy="827.9" r="31.2"/><path class="st2" d="M1263.8 800.2c15.3 0 27.7 12.4 27.7 27.7s-12.4 27.7-27.7 27.7c-15.3 0-27.7-12.4-27.7-27.7.1-15.3 12.5-27.7 27.7-27.7m0-3.5c-17.2 0-31.2 14-31.2 31.2s14 31.2 31.2 31.2 31.2-14 31.2-31.2c0-17.3-13.9-31.2-31.2-31.2z"/></g><g><circle class="st2" cx="1179.6" cy="497.2" r="46.9"/><path class="st4" d="M1179.6 453.8c23.9 0 43.4 19.5 43.4 43.4s-19.5 43.4-43.4 43.4-43.4-19.5-43.4-43.4 19.5-43.4 43.4-43.4m0-3.5c-25.9 0-46.9 21-46.9 46.9s21 46.9 46.9 46.9 46.9-21 46.9-46.9-21-46.9-46.9-46.9z"/></g><g><circle class="st0" cx="1342.4" cy="417" r="32.4"/><path class="st2" d="M1342.4 388.1c15.9 0 28.9 13 28.9 28.9s-13 28.9-28.9 28.9-28.9-13-28.9-28.9c0-16 13-28.9 28.9-28.9m0-3.6c-17.9 0-32.4 14.5-32.4 32.4s14.5 32.4 32.4 32.4 32.4-14.5 32.4-32.4c.1-17.8-14.5-32.4-32.4-32.4z"/></g><g><circle class="st2" cx="1180.3" cy="248.1" r="78.5"/><path class="st4" d="M1180.3 173.1c41.3 0 75 33.6 75 75s-33.6 75-75 75c-41.3 0-75-33.6-75-75s33.6-75 75-75m0-3.5c-43.3 0-78.5 35.1-78.5 78.5s35.1 78.5 78.5 78.5c43.3 0 78.5-35.1 78.5-78.5s-35.2-78.5-78.5-78.5z"/></g><g><circle class="st2" cx="893.4" cy="215.9" r="47"/><path class="st4" d="M893.4 172.5c24 0 43.5 19.5 43.5 43.5s-19.5 43.5-43.5 43.5-43.5-19.5-43.5-43.5 19.6-43.5 43.5-43.5m0-3.5c-25.9 0-47 21-47 47 0 25.9 21 47 47 47 25.9 0 47-21 47-47s-21-47-47-47z"/></g><g><circle class="st0" cx="1734.1" cy="388.9" r="26.3"/><path class="st2" d="M1734.1 366.1c12.6 0 22.8 10.2 22.8 22.8 0 12.6-10.2 22.8-22.8 22.8-12.6 0-22.8-10.2-22.8-22.8 0-12.6 10.2-22.8 22.8-22.8m0-3.5c-14.5 0-26.3 11.8-26.3 26.3s11.8 26.3 26.3 26.3 26.3-11.8 26.3-26.3-11.8-26.3-26.3-26.3z"/></g><g><circle class="st0" cx="689.4" cy="262.3" r="40.1"/><path class="st2" d="M689.4 225.7c20.2 0 36.6 16.4 36.6 36.6s-16.4 36.6-36.6 36.6-36.6-16.4-36.6-36.6 16.4-36.6 36.6-36.6m0-3.5c-22.2 0-40.1 18-40.1 40.1 0 22.2 18 40.1 40.1 40.1 22.2 0 40.1-18 40.1-40.1 0-22.2-18-40.1-40.1-40.1z"/></g><g><path class="st5" d="M594.6 435.3c.1-.8.2-1.7.2-2.5 0-11.2-9.1-20.4-20.4-20.4-9 0-16.7 5.9-19.4 14.1-2.2-1.1-4.7-1.7-7.4-1.7-9.1 0-16.4 7.3-16.6 16.3-7.5 2.8-12.7 9.1-12.7 16.4 0 9.9 9.7 18 21.8 18h42.3c14.2 0 25.8-9.5 25.8-21.3 0-8.2-5.5-15.3-13.6-18.9z"/></g><g><path class="st5" d="M1226.5 257.6c-.1-3.8-3.2-6.8-7-6.8h-47.8c-3.8 0-6.9 3-7 6.8v21.2c0 3.9 3.1 7 7 7h7v-13.1h2.7v13.1h28.3v-13.1h2.7v13.1h7c3.9 0 7-3.1 7-7l.1-21.2z"/><path class="st5" d="M1173.3 223.4c.3-1.8.8-3.5 1.5-5.1h-37.3c-3.3 0-6 2.7-6 6v39.9c0 3.3 2.7 6 6 6h19.5v10.2h-4.5c-1.2 0-2.1.9-2.1 2.1v3.6h14c-1.9-1.9-3.1-4.5-3.1-7.3v-14.3h-25.1v-41.1h37.1zM1195.5 208.1c-10.6 0-19.3 8.6-19.3 19.3 0 10.6 8.6 19.3 19.3 19.3 10.6 0 19.3-8.6 19.3-19.3 0-10.7-8.6-19.3-19.3-19.3z"/><path class="st5" d="M1185.5 247.5c-6.2-3.1-10.8-9.1-12.1-16.2v16.2h12.1zM1140.5 227.4h28.9v8.8h-28.9zM1140.5 239.5v22h20.8v-7.2c.1-3.8 3.2-6.8 7-6.8h1.2v-8h-29z"/></g><path class="st5" d="M1575.9 730.3c-.6-21.4-17.7-39.2-39-40.5-1.6-.2-3.3-.2-4.8 0-22.1 1.2-39.4 19.4-39.4 41.6 0 23 18.7 41.6 41.7 41.6 22.5 0 41.2-18.3 41.6-40.8.1-.3.1-.6.1-1-.1-.3-.1-.6-.2-.9zm-38.2 6.6v-11.2c5.7.1 10.9.5 15.9 1.1.1 1.5.1 3.1.1 4.4v.2c0 1.5 0 2.9-.1 4.3-5 .7-10.2 1.1-15.9 1.2zm22-2.2c.1-1.1.1-2.2.1-3.4 0-1.1 0-2.3-.1-3.4.2 0 .3.1.5.1 6.4 1.4 8.7 2.8 9.5 3.4-.8.6-3.3 1.9-9.4 3.2-.2 0-.4.1-.6.1zm2.6-12.6c-1-.2-2.1-.4-3.2-.6-1-7.1-3.2-13.7-6.3-19-.4-.7-.8-1.4-1.3-2.1 8.9 5 15.4 13.7 17.5 23.7-1.8-.7-4-1.4-6.7-2zm-9.5 19.9c-1 5.7-2.8 10.9-5.2 15-2.7 4.6-6.3 8-9.9 9.2V743c5.4-.1 10.3-.4 15.1-1zm-1.5 20.5l1.5-2.4c3.1-5.3 5.2-11.9 6.3-19 1.1-.2 2.2-.4 3.2-.6 2.7-.6 4.9-1.3 6.8-2-2.1 10.1-8.7 19-17.8 24zm-13.6-43v-23.2c3.6 1.3 7.2 4.6 9.9 9.2 2.5 4.3 4.3 9.4 5.3 15-4.9-.5-9.8-.9-15.2-1zm-21.4 1c1-5.4 2.8-10.6 5.4-15 3.2-5.5 6.3-8.4 10.3-9.4v23.3c-6.8.2-11.1.6-15.7 1.1zm15.7 5.2v11.2c-7.2-.1-11.9-.5-16.5-1.1 0-.4-.1-.9-.2-1.3-.1-1-.3-2.1-.3-3.1s.1-2.1.3-3.1c.1-.4.1-.9.2-1.3 4.6-.8 9.3-1.2 16.5-1.3zm-23 2.2c-.1 1.2-.1 2.3-.1 3.4s0 2.2.1 3.4c-.2 0-.3-.1-.5-.1-5.8-1.2-8.4-2.6-9.3-3.3.9-.7 3.6-2.1 9.3-3.3.1-.1.3-.1.5-.1zm6.9-25.4c-3.1 5.3-5.2 11.9-6.3 19-1.1.2-2.2.4-3.2.6-2.7.6-5 1.3-6.9 2.1 2.1-10.1 8.7-19 17.7-23.9-.4.7-.9 1.4-1.3 2.2zm-9.5 37.9c1 .2 2.1.4 3.2.6 1 7.1 3.2 13.7 6.3 19 .5.9 1.1 1.7 1.6 2.6-9.3-5-16-14-18-24.3 1.8.8 4.2 1.5 6.9 2.1zm25.6 2.6v23.3c-4.1-1-7.3-3.9-10.5-9.4-2.3-4-4-9.1-5.1-15 4.7.7 8.8 1 15.6 1.1z"/><g><path class="st5" d="M473.8 683.5l-.5 8.4c-.1.4-.3.9-.5 1.4l-20.3 21.3c-2 2.1-2 5.3 0 7.4l20.3 21.3c.2.4.4 1 .5 1.4l.5 8.4h-58.6l.5-8.4c.1-.4.3-.9.5-1.4l20.3-21.3c2-2.1 2-5.3 0-7.4l-20.3-21.3c-.2-.4-.4-1-.5-1.4l-.5-8.4h58.6m3.8-5.4h-66.2c-1.2 0-2 .9-1.8 2.1l.8 12.3c.2 1.1.8 2.9 1.4 3.9l20.8 21.8-20.8 21.8c-.6 1-1.3 2.7-1.4 3.9l-.8 12.3c-.2 1.1.6 2.1 1.8 2.1h66.2c1.2 0 2-.9 1.8-2.1l-.8-12.3c-.2-1.1-.8-2.9-1.4-3.9l-20.8-21.8 20.8-21.8c.6-1 1.3-2.7 1.4-3.9l.8-12.3c.1-1.1-.7-2.1-1.8-2.1z"/><path class="st5" d="M446.8 723.3c.1-3.9-1-5.6 5.3-12.4 0 0 12.6-13.3 14.2-14.9 2.6-2.6 3.1-5.3-2.6-5.3-5.9 0-11.7 7.9-24.6 6.4-3.3-.4-6.1-.8-10.1-2.7-5-2.4-6.3.8-4.3 2.9 2 2.1 13 13.6 13 13.6 5.1 5 4 8.7 4 12.4 0 2 1.3 3.3 2.5 3.4 1.3.2 2.6-.9 2.6-3.4zM439 734.9s-8.2 8.7-9.4 9.9c-1.9 1.9-2.7 5.1 1.6 5.1h24.9c4.1 0 4.7-3.3 3.2-4.9-1.5-1.5-9.6-10.1-9.6-10.1-3.8-3.7-6.1-5-10.7 0z"/></g><g><path class="st5" d="M1087 735c-1.1-1.7-2-3.5-2.7-5.4-1.5-4.2-1.8-8.5-1.2-12.6l-5.9-7.3-9.4 3.3c-.5 2.6-.8 5.2-.8 7.9 0 9.5 3.2 18.2 8.5 25.2l1.8-9.6 9.7-1.5zM1106.4 755.8l3.4-9.1c-6.4.4-12.6-1.7-17.5-5.7l-9.3 1.5-1.9 9.8c7.3 6.4 16.8 10.2 27.2 10.2 1.8 0 3.6-.1 5.3-.3l-7.2-6.4zM1146.8 737l-9.2 3.2-6.2-7.6c-2.8 5.5-7.5 10-13.6 12.4l-3.3 8.8 7.5 6.5c11.2-3.9 20.2-12.4 24.8-23.3zM1141.5 695.9l-1.8 9.5-9.6 1.6c1.1 1.7 2 3.5 2.7 5.4 1.5 4.2 1.8 8.5 1.2 12.6l6 7.3 9.3-3.3c.5-2.6.8-5.2.8-8-.1-9.5-3.3-18.2-8.6-25.1zM1135.8 689.7c-7.3-6.4-16.8-10.2-27.3-10.2-1.8 0-3.6.1-5.3.3l7.4 6.3-3.4 9.1c6.4-.4 12.6 1.7 17.5 5.7l9.3-1.5 1.8-9.7zM1085.6 709.4c2.8-5.5 7.5-10 13.6-12.4l3.3-8.8-7.5-6.5c-11.2 3.8-20.3 12.4-24.8 23.3l9.2-3.2 6.2 7.6z"/></g><g><circle class="st5" cx="921.4" cy="501.7" r="135.9"/><path class="st1" d="M823.4 418l-6.1-5.1-1.4 1.7 6 5.1c.5-.6 1-1.1 1.5-1.7zM857.9 389.5l-4-6.9-1.9 1.1 4 6.8c.6-.2 1.3-.6 1.9-1zM800.7 456.5l-7.4-2.7-.8 2.1 7.4 2.7c.2-.6.5-1.4.8-2.1zM900.1 374.6l-1.4-7.8-2.2.4 1.4 7.8c.8-.2 1.5-.3 2.2-.4zM1020.9 419.7l6-5.1-1.4-1.7-6.1 5.1c.5.6 1 1.1 1.5 1.7zM1042.9 458.7l7.4-2.7-.8-2.1-7.4 2.7c.3.6.6 1.4.8 2.1zM944.9 375l1.4-7.8-2.2-.4-1.4 7.8c.7.1 1.5.2 2.2.4zM986.8 390.6l4-6.8-1.9-1.1-4 6.9c.6.3 1.3.7 1.9 1zM792.5 501.7v-1.1h-7.9v2.2h7.9v-1.1zM1042.1 546.8l7.4 2.7.8-2.1-7.4-2.7c-.2.7-.5 1.4-.8 2.1zM1050.3 500.6v2.2h7.9v-2.2h-7.9zM799.9 544.7l-7.4 2.7.8 2.1 7.4-2.7c-.3-.7-.6-1.4-.8-2.1z"/><g><path class="st6" d="M883 389.6l-6.3-17.2-4.2 1.5 6.3 17.2 4.2-1.5zM819.9 440.5l-15.8-9.2-2.2 3.9 15.9 9.2c.6-1.3 1.3-2.6 2.1-3.9zM921.4 383.2c.8 0 1.5 0 2.2.1V365h-4.5v18.3c.8-.1 1.6-.1 2.3-.1zM847 409.5l-11.8-14-3.4 2.9 11.8 14.1c1.1-1.1 2.2-2.1 3.4-3zM964 391.1l6.3-17.2-4.2-1.5-6.3 17.2 4.2 1.5zM1025.1 444.4l15.9-9.2-2.2-3.9-15.8 9.2 2.1 3.9zM1038.5 483.3l18-3.2-.8-4.4-18 3.2c.3 1.5.5 2.9.8 4.4zM999.3 412.4l11.8-14.1-3.4-2.9-11.8 14c1.1 1 2.2 2 3.4 3zM805.1 478.9l-18-3.2-.8 4.4 18 3.2c.3-1.5.5-2.9.8-4.4zM1022.9 562.9l15.9 9.2 2.2-3.9-15.9-9.2c-.7 1.3-1.4 2.6-2.2 3.9zM804.3 520.1l-18 3.2.8 4.4 18-3.2c-.3-1.5-.5-3-.8-4.4zM1037.7 524.5l18 3.2.8-4.4-18-3.2c-.3 1.4-.5 2.9-.8 4.4zM817.7 559l-15.9 9.2 2.2 3.9 15.8-9.2-2.1-3.9z"/></g><path class="st5" d="M921.4 638.7c-75.6 0-137-61.5-137-137s61.5-137 137-137 137 61.5 137 137-61.4 137-137 137zm0-271.8c-74.3 0-134.8 60.5-134.8 134.8s60.5 134.8 134.8 134.8 134.8-60.5 134.8-134.8-60.5-134.8-134.8-134.8z"/><g><path class="st6" d="M949.2 489.8l2.4-1.6c2.7-1.8 3.4-5.5 1.6-8.2-1.8-2.7-5.5-3.4-8.2-1.6l-2.8 1.9c-4.4 2.9-9.8 3.6-14.9 2.1-5.7-1.7-12.2-.9-17.5 2.8-8.6 6.1-11.1 18.3-5.4 27.2 6.1 9.7 18.9 12.3 28.3 6 5.3-3.6 8.4-9.2 8.9-15.2.4-5.3 3-10.3 7.6-13.4z"/><path class="st0" d="M901 518.5l-2.7-4.1 115.8-76.3 1.4 2z"/><ellipse transform="rotate(-33.874 921.522 501.851)" class="st6" cx="921.6" cy="501.9" rx="16.2" ry="16.2"/></g><g><path class="st7" d="M921.4 439.5c18.2 0 34.6 7.7 46.1 19.9l35.9-23.7c-19.5-23.7-49-38.9-82-38.9-58.5 0-106.1 47.6-106.1 106.1 0 19.2 5.2 38.1 15.1 54.5l36.5-21.9c-5.9-9.8-9-21.1-9-32.6 0-34.9 28.5-63.4 63.5-63.4z"/><path class="st8" d="M1013.8 450.8L978.4 475c4.2 8.4 6.5 17.9 6.5 28 0 12-3.3 23.6-9.7 33.7l36.1 22.6c10.6-16.9 16.2-36.4 16.2-56.3 0-19-5-36.8-13.7-52.2z"/></g><path class="st9" d="M877.8 543.4l-35.4 21.2c-7.3 4.4-8.7 14.6-2.5 20.6 21 20.6 49.8 33.2 81.5 33.2 30.9 0 59-12 79.9-31.7 6.2-5.9 5.1-16.1-2.2-20.6L963 543.5c-2.1-1.3-4.5-2-7-2h-71.4c-2.4 0-4.7.7-6.8 1.9z"/></g></g></svg>